<svg xmlns="http://www.w3.org/2000/svg" xmlns:v="https://svgstorm.com"
viewBox = "0 0 522 478"
width="522"
height="478">
<g fill="None" fill-opacity="0.0" stroke="#000000" stroke-opacity="0.00" stroke-width="0.3"><path d="
M 0.00 478.00 
L 522.00 478.00
L 522.00 0.00
L 0.00 0.00
L 0.00 478.00
M 440.00 252.00 
C 440.00 253.33 440.00 254.67 440.00 256.00
C 440.00 349.70 351.89 424.32 262.00 425.00 C 172.11 425.68 81.00 351.90 81.00 258.00
C 81.00 250.00 81.00 242.00 81.00 234.00
C 81.00 147.37 164.85 66.00 251.00 66.00
C 257.33 66.00 263.67 66.00 270.00 66.00
C 315.74 66.00 361.38 89.23 392.25 122.75 C 423.11 156.27 446.33 205.54 440.00 252.00 Z"/>
</g>
<g fill="None" fill-opacity="0.0" stroke="#CCCCCC" stroke-opacity="0.20" stroke-width="0.3"><path d="
M 81.00 234.00 
C 81.00 233.96 82.00 234.00 82.00 234.00
C 84.22 201.34 95.07 171.23 113.00 144.00
C 115.67 139.95 118.96 136.52 122.00 133.00
C 124.41 129.48 127.24 126.23 130.00 123.00
C 132.49 120.09 135.14 117.44 138.00 115.00
C 170.40 87.31 207.97 68.64 251.00 67.00
C 250.98 67.00 251.00 66.00 251.00 66.00
C 164.85 66.00 81.00 147.37 81.00 234.00 Z"/>
</g>
<g fill="None" fill-opacity="0.0" stroke="#9F9F9F" stroke-opacity="0.38" stroke-width="0.3"><path d="
M 251.00 67.00 
C 257.29 66.76 263.70 66.87 270.00 67.00
C 270.01 67.00 270.00 66.00 270.00 66.00
C 263.67 66.00 257.33 66.00 251.00 66.00
C 251.00 66.00 250.98 67.00 251.00 67.00 Z"/>
</g>
<g fill="None" fill-opacity="0.0" stroke="#D2D2D2" stroke-opacity="0.18" stroke-width="0.3"><path d="
M 270.00 67.00 
C 304.24 67.68 338.59 81.02 366.00 101.00
C 368.51 102.83 371.32 104.42 373.00 107.00
C 373.36 107.22 374.00 107.00 374.00 107.00
C 380.97 110.41 389.37 119.78 394.00 126.00
C 419.65 160.50 439.00 195.43 439.00 240.00
C 439.33 243.40 440.00 247.92 440.00 252.00
C 446.33 205.54 423.11 156.27 392.25 122.75 C 361.38 89.23 315.74 66.00 270.00 66.00
C 270.00 66.00 270.01 67.00 270.00 67.00 Z"/>
</g>
<g fill="None" fill-opacity="0.0" stroke="#000000" stroke-opacity="0.97" stroke-width="0.3"><path d="
M 138.00 115.00 
C 135.41 117.59 132.54 120.46 130.00 123.00
C 127.24 126.23 124.41 129.48 122.00 133.00
C 119.22 137.05 116.06 140.35 113.00 144.00
C 95.07 171.23 84.22 201.34 82.00 234.00
C 81.47 241.84 81.70 250.15 82.00 258.00
C 83.30 292.12 97.58 323.03 116.00 351.00
C 118.04 353.44 120.17 355.33 122.00 358.00
C 124.41 361.52 127.24 364.77 130.00 368.00
C 132.26 370.26 134.79 372.79 137.00 375.00
C 140.66 378.13 144.11 381.33 148.00 384.00
C 150.68 385.84 152.63 388.02 155.00 390.00
C 189.91 412.99 232.86 427.94 275.67 423.67 C 318.48 419.40 350.75 403.56 383.00 376.00
C 385.26 373.74 387.79 371.21 390.00 369.00
C 391.95 366.72 394.00 364.14 396.00 362.00
C 397.92 359.42 399.96 357.34 402.00 355.00
C 422.05 325.78 439.00 292.51 439.00 256.00
C 439.00 250.67 439.00 245.33 439.00 240.00
C 439.00 195.43 419.65 160.50 394.00 126.00
C 388.03 119.15 379.12 114.31 374.00 107.00
C 374.00 107.00 373.36 107.22 373.00 107.00
C 370.16 105.23 368.35 103.18 366.00 101.00
C 338.59 81.02 304.24 67.68 270.00 67.00
C 263.70 66.87 257.29 66.76 251.00 67.00
C 207.97 68.64 170.40 87.31 138.00 115.00
M 269.00 79.00 
C 349.83 79.00 427.00 154.84 427.00 236.00
C 427.61 242.30 427.67 249.76 427.00 256.00
C 427.00 257.67 427.00 259.33 427.00 261.00
C 427.00 264.28 426.53 267.40 426.00 270.00
C 419.41 344.90 346.06 408.03 273.00 412.00
C 264.81 413.33 254.12 413.57 246.00 412.00
C 168.65 405.86 94.00 336.74 94.00 256.00
C 93.36 249.38 93.21 241.57 94.00 235.00
C 94.75 197.33 113.00 156.43 139.75 129.75 C 166.50 103.07 203.91 80.00 242.00 80.00
C 244.10 79.80 247.23 79.00 250.00 79.00
C 250.50 79.00 251.00 79.00 251.00 79.00
C 255.14 75.94 264.71 78.59 269.00 79.00 Z"/>
</g>
<g fill="None" fill-opacity="0.0" stroke="#666666" stroke-opacity="0.57" stroke-width="0.3"><path d="
M 251.00 79.00 
C 257.00 79.00 263.00 79.00 269.00 79.00
C 264.71 78.59 255.14 75.94 251.00 79.00 Z"/>
</g>
<g fill="None" fill-opacity="0.0" stroke="#9E9E9E" stroke-opacity="0.37" stroke-width="0.3"><path d="
M 242.00 80.00 
C 243.33 80.00 244.67 80.00 246.00 80.00
C 247.33 80.00 248.67 80.00 250.00 80.00
C 250.22 79.87 250.00 79.00 250.00 79.00
C 247.23 79.00 244.10 79.80 242.00 80.00 Z"/>
</g>
<g fill="None" fill-opacity="0.0" stroke="#CECECE" stroke-opacity="0.20" stroke-width="0.3"><path d="
M 250.00 80.00 
C 309.52 80.00 363.01 103.03 397.30 152.70 C 431.59 202.37 435.50 272.86 406.08 324.08 C 376.66 375.30 331.04 405.94 272.98 410.98 C 214.92 416.02 158.86 387.30 124.25 339.75 C 89.63 292.21 86.24 219.71 114.25 168.25 C 142.27 116.80 190.35 87.58 246.00 80.00
C 244.67 80.00 243.33 80.00 242.00 80.00
C 203.91 80.00 166.50 103.07 139.75 129.75 C 113.00 156.43 94.75 197.33 94.00 235.00
C 93.86 241.99 94.00 249.00 94.00 256.00
C 94.00 336.74 168.65 405.86 246.00 412.00
C 254.72 412.69 264.27 412.47 273.00 412.00
C 346.06 408.03 419.41 344.90 426.00 270.00
C 426.26 267.07 426.76 263.27 427.00 261.00
C 427.00 259.33 427.00 257.67 427.00 256.00
C 427.00 249.33 427.00 242.67 427.00 236.00
C 427.00 154.84 349.83 79.00 269.00 79.00
C 263.00 79.00 257.00 79.00 251.00 79.00
C 251.00 79.00 250.50 79.00 250.00 79.00
C 250.00 79.00 250.22 79.87 250.00 80.00 Z"/>
</g>
<g fill="None" fill-opacity="0.0" stroke="#000000" stroke-opacity="0.00" stroke-width="0.3"><path d="
M 250.00 80.00 
C 248.67 80.00 247.33 80.00 246.00 80.00
C 190.35 87.58 142.27 116.80 114.25 168.25 C 86.24 219.71 89.63 292.21 124.25 339.75 C 158.86 387.30 214.92 416.02 272.98 410.98 C 331.04 405.94 376.66 375.30 406.08 324.08 C 435.50 272.86 431.59 202.37 397.30 152.70 C 363.01 103.03 309.52 80.00 250.00 80.00
M 264.00 126.00 
C 265.00 126.00 266.00 126.03 267.00 126.00
C 299.24 125.12 322.58 158.21 321.00 189.00 C 319.42 219.79 293.36 246.64 260.98 246.98 C 228.59 247.31 202.19 220.34 200.00 190.00 C 197.81 159.66 221.61 123.97 254.00 126.00
C 254.50 126.03 255.50 126.00 256.00 126.00
C 259.02 124.72 261.14 125.37 264.00 126.00
M 356.00 344.00 
C 356.47 348.81 358.05 355.18 356.00 360.00
C 356.00 360.50 355.86 361.54 356.00 362.00
C 356.30 363.01 357.29 363.59 356.00 365.00
C 351.66 369.73 338.80 364.53 332.00 366.00 C 325.20 367.47 314.63 365.34 307.00 366.00 C 299.37 366.66 289.99 365.72 282.00 366.00 C 274.01 366.28 265.12 365.91 257.00 366.00 C 248.88 366.09 240.11 366.04 232.00 366.00 C 223.89 365.96 214.95 366.19 207.00 366.00 C 199.05 365.81 189.53 366.47 182.00 366.00 C 174.47 365.53 162.19 369.54 163.00 359.00
C 164.67 359.24 163.17 361.85 165.00 362.00
C 165.00 356.67 165.00 351.33 165.00 346.00
C 165.00 340.96 164.76 336.09 167.00 332.00
C 166.95 331.51 167.00 331.00 167.00 331.00
C 173.56 291.06 213.44 257.00 254.00 257.00
C 258.00 257.00 262.00 257.00 266.00 257.00
C 314.28 257.00 351.56 298.08 356.00 344.00 Z"/>
</g>
<g fill="None" fill-opacity="0.0" stroke="#454545" stroke-opacity="0.68" stroke-width="0.3"><path d="
M 373.00 107.00 
C 371.32 104.42 368.51 102.83 366.00 101.00
C 368.35 103.18 370.16 105.23 373.00 107.00 Z"/>
</g>
<g fill="None" fill-opacity="0.0" stroke="#7F7F7F" stroke-opacity="0.48" stroke-width="0.3"><path d="
M 394.00 126.00 
C 389.37 119.78 380.97 110.41 374.00 107.00
C 379.12 114.31 388.03 119.15 394.00 126.00 Z"/>
</g>
<g fill="None" fill-opacity="0.0" stroke="#878787" stroke-opacity="0.46" stroke-width="0.3"><path d="
M 130.00 123.00 
C 132.54 120.46 135.41 117.59 138.00 115.00
C 135.14 117.44 132.49 120.09 130.00 123.00 Z"/>
</g>
<g fill="None" fill-opacity="0.0" stroke="#FFFFFF" stroke-opacity="0.00" stroke-width="0.3"><path d="
M 256.00 126.00 
C 258.67 126.00 261.33 126.00 264.00 126.00
C 261.14 125.37 259.02 124.72 256.00 126.00 Z"/>
</g>
<g fill="None" fill-opacity="0.0" stroke="#D2D2D2" stroke-opacity="0.18" stroke-width="0.3"><path d="
M 267.00 126.00 
C 267.25 126.27 267.00 127.00 267.00 127.00
C 306.16 129.13 329.83 173.07 315.68 208.68 C 301.52 244.29 253.90 254.58 224.75 233.25 C 195.60 211.91 190.42 160.14 223.00 140.00
C 223.27 139.79 223.72 139.23 224.00 139.00
C 232.59 132.00 242.85 127.43 254.00 127.00
C 253.98 127.00 254.00 126.00 254.00 126.00
C 221.61 123.97 197.81 159.66 200.00 190.00 C 202.19 220.34 228.59 247.31 260.98 246.98 C 293.36 246.64 319.42 219.79 321.00 189.00 C 322.58 158.21 299.24 125.12 267.00 126.00 Z"/>
</g>
<g fill="None" fill-opacity="0.0" stroke="#464646" stroke-opacity="0.69" stroke-width="0.3"><path d="
M 254.00 127.00 
C 258.27 126.84 262.73 126.77 267.00 127.00
C 267.00 127.00 267.25 126.27 267.00 126.00
C 266.00 126.03 265.00 126.00 264.00 126.00
C 261.33 126.00 258.67 126.00 256.00 126.00
C 255.50 126.00 254.50 126.03 254.00 126.00
C 254.00 126.00 253.98 127.00 254.00 127.00 Z"/>
</g>
<g fill="None" fill-opacity="0.0" stroke="#000000" stroke-opacity="1.00" stroke-width="0.3"><path d="
M 224.00 139.00 
C 223.75 139.25 223.32 139.80 223.00 140.00
C 190.42 160.14 195.60 211.91 224.75 233.25 C 253.90 254.58 301.52 244.29 315.68 208.68 C 329.83 173.07 306.16 129.13 267.00 127.00
C 262.73 126.77 258.27 126.84 254.00 127.00
C 242.85 127.43 232.59 132.00 224.00 139.00 Z"/>
</g>
<g fill="None" fill-opacity="0.0" stroke="#424242" stroke-opacity="0.69" stroke-width="0.3"><path d="
M 113.00 144.00 
C 116.06 140.35 119.22 137.05 122.00 133.00
C 118.96 136.52 115.67 139.95 113.00 144.00 Z"/>
</g>
<g fill="None" fill-opacity="0.0" stroke="#3F3F3F" stroke-opacity="0.71" stroke-width="0.3"><path d="
M 223.00 140.00 
C 223.32 139.80 223.75 139.25 224.00 139.00
C 223.72 139.23 223.27 139.79 223.00 140.00 Z"/>
</g>
<g fill="None" fill-opacity="0.0" stroke="#999999" stroke-opacity="0.40" stroke-width="0.3"><path d="
M 81.00 258.00 
C 81.00 257.96 82.00 258.00 82.00 258.00
C 81.70 250.15 81.47 241.84 82.00 234.00
C 82.00 234.00 81.00 233.96 81.00 234.00
C 81.00 242.00 81.00 250.00 81.00 258.00 Z"/>
</g>
<g fill="None" fill-opacity="0.0" stroke="#707070" stroke-opacity="0.55" stroke-width="0.3"><path d="
M 94.00 256.00 
C 94.00 249.00 93.86 241.99 94.00 235.00
C 93.21 241.57 93.36 249.38 94.00 256.00 Z"/>
</g>
<g fill="None" fill-opacity="0.0" stroke="#727272" stroke-opacity="0.54" stroke-width="0.3"><path d="
M 427.00 256.00 
C 427.67 249.76 427.61 242.30 427.00 236.00
C 427.00 242.67 427.00 249.33 427.00 256.00 Z"/>
</g>
<g fill="None" fill-opacity="0.0" stroke="#8F8F8F" stroke-opacity="0.43" stroke-width="0.3"><path d="
M 439.00 256.00 
C 439.00 255.96 440.00 256.00 440.00 256.00
C 440.00 254.67 440.00 253.33 440.00 252.00
C 440.00 247.92 439.33 243.40 439.00 240.00
C 439.00 245.33 439.00 250.67 439.00 256.00 Z"/>
</g>
<g fill="None" fill-opacity="0.0" stroke="#CDCDCD" stroke-opacity="0.20" stroke-width="0.3"><path d="
M 402.00 355.00 
C 400.16 357.68 398.10 359.75 396.00 362.00
C 394.00 364.14 391.95 366.72 390.00 369.00
C 387.81 371.56 385.51 373.85 383.00 376.00
C 350.75 403.56 318.48 419.40 275.67 423.67 C 232.86 427.94 189.91 412.99 155.00 390.00
C 152.30 388.22 150.30 385.98 148.00 384.00
C 144.11 381.33 140.66 378.13 137.00 375.00
C 134.44 372.81 132.15 370.51 130.00 368.00
C 127.24 364.77 124.41 361.52 122.00 358.00
C 119.99 355.67 117.75 353.66 116.00 351.00
C 97.58 323.03 83.30 292.12 82.00 258.00
C 82.00 258.00 81.00 257.96 81.00 258.00
C 81.00 351.90 172.11 425.68 262.00 425.00 C 351.89 424.32 440.00 349.70 440.00 256.00
C 440.00 256.00 439.00 255.96 439.00 256.00
C 439.00 292.51 422.05 325.78 402.00 355.00 Z"/>
</g>
<g fill="None" fill-opacity="0.0" stroke="#D0D0D0" stroke-opacity="0.18" stroke-width="0.3"><path d="
M 167.00 331.00 
C 173.58 322.89 173.92 308.23 181.75 299.75 C 189.58 291.27 194.26 281.81 204.70 275.70 C 215.14 269.59 224.63 262.46 237.00 261.00
C 237.09 260.98 238.61 260.14 239.00 260.00
C 243.71 258.28 248.83 258.00 254.00 258.00
C 253.96 258.00 254.00 257.00 254.00 257.00
C 213.44 257.00 173.56 291.06 167.00 331.00 Z"/>
</g>
<g fill="None" fill-opacity="0.0" stroke="#676767" stroke-opacity="0.56" stroke-width="0.3"><path d="
M 254.00 258.00 
C 258.00 258.00 262.00 258.00 266.00 258.00
C 265.96 258.00 266.00 257.00 266.00 257.00
C 262.00 257.00 258.00 257.00 254.00 257.00
C 254.00 257.00 253.96 258.00 254.00 258.00 Z"/>
</g>
<g fill="None" fill-opacity="0.0" stroke="#CFCFCF" stroke-opacity="0.19" stroke-width="0.3"><path d="
M 266.00 258.00 
C 313.02 258.00 350.68 299.99 356.00 344.00
C 351.56 298.08 314.28 257.00 266.00 257.00
C 266.00 257.00 265.96 258.00 266.00 258.00 Z"/>
</g>
<g fill="None" fill-opacity="0.0" stroke="#000000" stroke-opacity="1.00" stroke-width="0.3"><path d="
M 239.00 260.00 
C 238.15 260.49 238.30 260.85 237.00 261.00
C 224.63 262.46 215.14 269.59 204.70 275.70 C 194.26 281.81 189.58 291.27 181.75 299.75 C 173.92 308.23 173.58 322.89 167.00 331.00
C 167.00 331.00 166.95 331.51 167.00 332.00
C 167.51 336.74 165.39 341.93 165.00 346.00
C 165.00 351.33 165.00 356.67 165.00 362.00
C 165.00 362.50 164.77 363.65 165.00 364.00
C 171.66 366.96 181.62 362.67 189.00 364.00 C 196.38 365.33 205.32 363.41 213.00 364.00 C 220.68 364.59 229.22 363.76 237.00 364.00 C 244.78 364.24 253.28 363.96 261.00 364.00 C 268.73 364.04 277.51 364.12 285.00 364.00 C 292.49 363.88 302.09 364.36 309.00 364.00 C 315.91 363.64 327.39 364.85 333.00 364.00 C 338.61 363.15 355.25 366.71 356.00 362.00
C 355.86 361.54 356.00 360.50 356.00 360.00
C 356.00 354.80 356.62 349.16 356.00 344.00
C 350.68 299.99 313.02 258.00 266.00 258.00
C 262.00 258.00 258.00 258.00 254.00 258.00
C 248.83 258.00 243.71 258.28 239.00 260.00 Z"/>
</g>
<g fill="None" fill-opacity="0.0" stroke="#343434" stroke-opacity="0.74" stroke-width="0.3"><path d="
M 237.00 261.00 
C 238.30 260.85 238.15 260.49 239.00 260.00
C 238.61 260.14 237.09 260.98 237.00 261.00 Z"/>
</g>
<g fill="None" fill-opacity="0.0" stroke="#5C5C5C" stroke-opacity="0.61" stroke-width="0.3"><path d="
M 426.00 270.00 
C 426.53 267.40 427.00 264.28 427.00 261.00
C 426.76 263.27 426.26 267.07 426.00 270.00 Z"/>
</g>
<g fill="None" fill-opacity="0.0" stroke="#ADADAD" stroke-opacity="0.30" stroke-width="0.3"><path d="
M 165.00 346.00 
C 165.39 341.93 167.51 336.74 167.00 332.00
C 164.76 336.09 165.00 340.96 165.00 346.00 Z"/>
</g>
<g fill="None" fill-opacity="0.0" stroke="#FFFFFF" stroke-opacity="0.00" stroke-width="0.3"><path d="
M 356.00 360.00 
C 358.05 355.18 356.47 348.81 356.00 344.00
C 356.62 349.16 356.00 354.80 356.00 360.00 Z"/>
</g>
<g fill="None" fill-opacity="0.0" stroke="#4C4C4C" stroke-opacity="0.65" stroke-width="0.3"><path d="
M 122.00 358.00 
C 120.17 355.33 118.04 353.44 116.00 351.00
C 117.75 353.66 119.99 355.67 122.00 358.00 Z"/>
</g>
<g fill="None" fill-opacity="0.0" stroke="#666666" stroke-opacity="0.58" stroke-width="0.3"><path d="
M 396.00 362.00 
C 398.10 359.75 400.16 357.68 402.00 355.00
C 399.96 357.34 397.92 359.42 396.00 362.00 Z"/>
</g>
<g fill="None" fill-opacity="0.0" stroke="#FFFFFF" stroke-opacity="0.01" stroke-width="0.3"><path d="
M 356.00 365.00 
C 351.30 368.31 341.01 363.52 335.00 365.00 C 328.99 366.48 320.65 364.37 314.00 365.00 C 307.35 365.63 298.88 364.72 292.00 365.00 C 285.12 365.28 277.93 364.92 271.00 365.00 C 264.07 365.08 256.93 365.06 250.00 365.00 C 243.07 364.94 234.77 365.22 228.00 365.00 C 221.23 364.78 213.30 365.57 207.00 365.00 C 200.70 364.43 191.37 366.30 186.00 365.00 C 180.63 363.70 167.74 368.22 165.00 364.00
C 164.77 363.65 165.00 362.50 165.00 362.00
C 163.17 361.85 164.67 359.24 163.00 359.00
C 162.19 369.54 174.47 365.53 182.00 366.00 C 189.53 366.47 199.05 365.81 207.00 366.00 C 214.95 366.19 223.89 365.96 232.00 366.00 C 240.11 366.04 248.88 366.09 257.00 366.00 C 265.12 365.91 274.01 366.28 282.00 366.00 C 289.99 365.72 299.37 366.66 307.00 366.00 C 314.63 365.34 325.20 367.47 332.00 366.00 C 338.80 364.53 351.66 369.73 356.00 365.00 Z"/>
</g>
<g fill="None" fill-opacity="0.0" stroke="#3F3F3F" stroke-opacity="0.71" stroke-width="0.3"><path d="
M 165.00 364.00 
C 167.74 368.22 180.63 363.70 186.00 365.00 C 191.37 366.30 200.70 364.43 207.00 365.00 C 213.30 365.57 221.23 364.78 228.00 365.00 C 234.77 365.22 243.07 364.94 250.00 365.00 C 256.93 365.06 264.07 365.08 271.00 365.00 C 277.93 364.92 285.12 365.28 292.00 365.00 C 298.88 364.72 307.35 365.63 314.00 365.00 C 320.65 364.37 328.99 366.48 335.00 365.00 C 341.01 363.52 351.30 368.31 356.00 365.00
C 357.29 363.59 356.30 363.01 356.00 362.00
C 355.25 366.71 338.61 363.15 333.00 364.00 C 327.39 364.85 315.91 363.64 309.00 364.00 C 302.09 364.36 292.49 363.88 285.00 364.00 C 277.51 364.12 268.73 364.04 261.00 364.00 C 253.28 363.96 244.78 364.24 237.00 364.00 C 229.22 363.76 220.68 364.59 213.00 364.00 C 205.32 363.41 196.38 365.33 189.00 364.00 C 181.62 362.67 171.66 366.96 165.00 364.00 Z"/>
</g>
<g fill="None" fill-opacity="0.0" stroke="#909090" stroke-opacity="0.42" stroke-width="0.3"><path d="
M 137.00 375.00 
C 134.79 372.79 132.26 370.26 130.00 368.00
C 132.15 370.51 134.44 372.81 137.00 375.00 Z"/>
</g>
<g fill="None" fill-opacity="0.0" stroke="#8E8E8E" stroke-opacity="0.43" stroke-width="0.3"><path d="
M 383.00 376.00 
C 385.51 373.85 387.81 371.56 390.00 369.00
C 387.79 371.21 385.26 373.74 383.00 376.00 Z"/>
</g>
<g fill="None" fill-opacity="0.0" stroke="#585858" stroke-opacity="0.62" stroke-width="0.3"><path d="
M 155.00 390.00 
C 152.63 388.02 150.68 385.84 148.00 384.00
C 150.30 385.98 152.30 388.22 155.00 390.00 Z"/>
</g>
<g fill="None" fill-opacity="0.0" stroke="#454545" stroke-opacity="0.69" stroke-width="0.3"><path d="
M 273.00 412.00 
C 264.27 412.47 254.72 412.69 246.00 412.00
C 254.12 413.57 264.81 413.33 273.00 412.00 Z"/>
</g>
<g fill="#000000" fill-opacity="0.00" stroke="None">
<path d="
M 0.00 478.00 
L 522.00 478.00
L 522.00 0.00
L 0.00 0.00
L 0.00 478.00
M 440.00 252.00 
C 440.00 253.33 440.00 254.67 440.00 256.00
C 440.00 349.70 351.89 424.32 262.00 425.00 C 172.11 425.68 81.00 351.90 81.00 258.00
C 81.00 250.00 81.00 242.00 81.00 234.00
C 81.00 147.37 164.85 66.00 251.00 66.00
C 257.33 66.00 263.67 66.00 270.00 66.00
C 315.74 66.00 361.38 89.23 392.25 122.75 C 423.11 156.27 446.33 205.54 440.00 252.00 Z"/>
</g>
<g fill="#CCCCCC" fill-opacity="0.20" stroke="None">
<path d="
M 81.00 234.00 
C 81.00 233.96 82.00 234.00 82.00 234.00
C 84.22 201.34 95.07 171.23 113.00 144.00
C 115.67 139.95 118.96 136.52 122.00 133.00
C 124.41 129.48 127.24 126.23 130.00 123.00
C 132.49 120.09 135.14 117.44 138.00 115.00
C 170.40 87.31 207.97 68.64 251.00 67.00
C 250.98 67.00 251.00 66.00 251.00 66.00
C 164.85 66.00 81.00 147.37 81.00 234.00 Z"/>
</g>
<g fill="#9F9F9F" fill-opacity="0.38" stroke="None">
<path d="
M 251.00 67.00 
C 257.29 66.76 263.70 66.87 270.00 67.00
C 270.01 67.00 270.00 66.00 270.00 66.00
C 263.67 66.00 257.33 66.00 251.00 66.00
C 251.00 66.00 250.98 67.00 251.00 67.00 Z"/>
</g>
<g fill="#D2D2D2" fill-opacity="0.18" stroke="None">
<path d="
M 270.00 67.00 
C 304.24 67.68 338.59 81.02 366.00 101.00
C 368.51 102.83 371.32 104.42 373.00 107.00
C 373.36 107.22 374.00 107.00 374.00 107.00
C 380.97 110.41 389.37 119.78 394.00 126.00
C 419.65 160.50 439.00 195.43 439.00 240.00
C 439.33 243.40 440.00 247.92 440.00 252.00
C 446.33 205.54 423.11 156.27 392.25 122.75 C 361.38 89.23 315.74 66.00 270.00 66.00
C 270.00 66.00 270.01 67.00 270.00 67.00 Z"/>
</g>
<g fill="#000000" fill-opacity="0.97" stroke="None">
<path d="
M 138.00 115.00 
C 135.41 117.59 132.54 120.46 130.00 123.00
C 127.24 126.23 124.41 129.48 122.00 133.00
C 119.22 137.05 116.06 140.35 113.00 144.00
C 95.07 171.23 84.22 201.34 82.00 234.00
C 81.47 241.84 81.70 250.15 82.00 258.00
C 83.30 292.12 97.58 323.03 116.00 351.00
C 118.04 353.44 120.17 355.33 122.00 358.00
C 124.41 361.52 127.24 364.77 130.00 368.00
C 132.26 370.26 134.79 372.79 137.00 375.00
C 140.66 378.13 144.11 381.33 148.00 384.00
C 150.68 385.84 152.63 388.02 155.00 390.00
C 189.91 412.99 232.86 427.94 275.67 423.67 C 318.48 419.40 350.75 403.56 383.00 376.00
C 385.26 373.74 387.79 371.21 390.00 369.00
C 391.95 366.72 394.00 364.14 396.00 362.00
C 397.92 359.42 399.96 357.34 402.00 355.00
C 422.05 325.78 439.00 292.51 439.00 256.00
C 439.00 250.67 439.00 245.33 439.00 240.00
C 439.00 195.43 419.65 160.50 394.00 126.00
C 388.03 119.15 379.12 114.31 374.00 107.00
C 374.00 107.00 373.36 107.22 373.00 107.00
C 370.16 105.23 368.35 103.18 366.00 101.00
C 338.59 81.02 304.24 67.68 270.00 67.00
C 263.70 66.87 257.29 66.76 251.00 67.00
C 207.97 68.64 170.40 87.31 138.00 115.00
M 269.00 79.00 
C 349.83 79.00 427.00 154.84 427.00 236.00
C 427.61 242.30 427.67 249.76 427.00 256.00
C 427.00 257.67 427.00 259.33 427.00 261.00
C 427.00 264.28 426.53 267.40 426.00 270.00
C 419.41 344.90 346.06 408.03 273.00 412.00
C 264.81 413.33 254.12 413.57 246.00 412.00
C 168.65 405.86 94.00 336.74 94.00 256.00
C 93.36 249.38 93.21 241.57 94.00 235.00
C 94.75 197.33 113.00 156.43 139.75 129.75 C 166.50 103.07 203.91 80.00 242.00 80.00
C 244.10 79.80 247.23 79.00 250.00 79.00
C 250.50 79.00 251.00 79.00 251.00 79.00
C 255.14 75.94 264.71 78.59 269.00 79.00 Z"/>
</g>
<g fill="#666666" fill-opacity="0.57" stroke="None">
<path d="
M 251.00 79.00 
C 257.00 79.00 263.00 79.00 269.00 79.00
C 264.71 78.59 255.14 75.94 251.00 79.00 Z"/>
</g>
<g fill="#9E9E9E" fill-opacity="0.37" stroke="None">
<path d="
M 242.00 80.00 
C 243.33 80.00 244.67 80.00 246.00 80.00
C 247.33 80.00 248.67 80.00 250.00 80.00
C 250.22 79.87 250.00 79.00 250.00 79.00
C 247.23 79.00 244.10 79.80 242.00 80.00 Z"/>
</g>
<g fill="#CECECE" fill-opacity="0.20" stroke="None">
<path d="
M 250.00 80.00 
C 309.52 80.00 363.01 103.03 397.30 152.70 C 431.59 202.37 435.50 272.86 406.08 324.08 C 376.66 375.30 331.04 405.94 272.98 410.98 C 214.92 416.02 158.86 387.30 124.25 339.75 C 89.63 292.21 86.24 219.71 114.25 168.25 C 142.27 116.80 190.35 87.58 246.00 80.00
C 244.67 80.00 243.33 80.00 242.00 80.00
C 203.91 80.00 166.50 103.07 139.75 129.75 C 113.00 156.43 94.75 197.33 94.00 235.00
C 93.86 241.99 94.00 249.00 94.00 256.00
C 94.00 336.74 168.65 405.86 246.00 412.00
C 254.72 412.69 264.27 412.47 273.00 412.00
C 346.06 408.03 419.41 344.90 426.00 270.00
C 426.26 267.07 426.76 263.27 427.00 261.00
C 427.00 259.33 427.00 257.67 427.00 256.00
C 427.00 249.33 427.00 242.67 427.00 236.00
C 427.00 154.84 349.83 79.00 269.00 79.00
C 263.00 79.00 257.00 79.00 251.00 79.00
C 251.00 79.00 250.50 79.00 250.00 79.00
C 250.00 79.00 250.22 79.87 250.00 80.00 Z"/>
</g>
<g fill="#000000" fill-opacity="0.00" stroke="None">
<path d="
M 250.00 80.00 
C 248.67 80.00 247.33 80.00 246.00 80.00
C 190.35 87.58 142.27 116.80 114.25 168.25 C 86.24 219.71 89.63 292.21 124.25 339.75 C 158.86 387.30 214.92 416.02 272.98 410.98 C 331.04 405.94 376.66 375.30 406.08 324.08 C 435.50 272.86 431.59 202.37 397.30 152.70 C 363.01 103.03 309.52 80.00 250.00 80.00
M 264.00 126.00 
C 265.00 126.00 266.00 126.03 267.00 126.00
C 299.24 125.12 322.58 158.21 321.00 189.00 C 319.42 219.79 293.36 246.64 260.98 246.98 C 228.59 247.31 202.19 220.34 200.00 190.00 C 197.81 159.66 221.61 123.97 254.00 126.00
C 254.50 126.03 255.50 126.00 256.00 126.00
C 259.02 124.72 261.14 125.37 264.00 126.00
M 356.00 344.00 
C 356.47 348.81 358.05 355.18 356.00 360.00
C 356.00 360.50 355.86 361.54 356.00 362.00
C 356.30 363.01 357.29 363.59 356.00 365.00
C 351.66 369.73 338.80 364.53 332.00 366.00 C 325.20 367.47 314.63 365.34 307.00 366.00 C 299.37 366.66 289.99 365.72 282.00 366.00 C 274.01 366.28 265.12 365.91 257.00 366.00 C 248.88 366.09 240.11 366.04 232.00 366.00 C 223.89 365.96 214.95 366.19 207.00 366.00 C 199.05 365.81 189.53 366.47 182.00 366.00 C 174.47 365.53 162.19 369.54 163.00 359.00
C 164.67 359.24 163.17 361.85 165.00 362.00
C 165.00 356.67 165.00 351.33 165.00 346.00
C 165.00 340.96 164.76 336.09 167.00 332.00
C 166.95 331.51 167.00 331.00 167.00 331.00
C 173.56 291.06 213.44 257.00 254.00 257.00
C 258.00 257.00 262.00 257.00 266.00 257.00
C 314.28 257.00 351.56 298.08 356.00 344.00 Z"/>
</g>
<g fill="#454545" fill-opacity="0.68" stroke="None">
<path d="
M 373.00 107.00 
C 371.32 104.42 368.51 102.83 366.00 101.00
C 368.35 103.18 370.16 105.23 373.00 107.00 Z"/>
</g>
<g fill="#7F7F7F" fill-opacity="0.48" stroke="None">
<path d="
M 394.00 126.00 
C 389.37 119.78 380.97 110.41 374.00 107.00
C 379.12 114.31 388.03 119.15 394.00 126.00 Z"/>
</g>
<g fill="#878787" fill-opacity="0.46" stroke="None">
<path d="
M 130.00 123.00 
C 132.54 120.46 135.41 117.59 138.00 115.00
C 135.14 117.44 132.49 120.09 130.00 123.00 Z"/>
</g>
<g fill="#FFFFFF" fill-opacity="0.00" stroke="None">
<path d="
M 256.00 126.00 
C 258.67 126.00 261.33 126.00 264.00 126.00
C 261.14 125.37 259.02 124.72 256.00 126.00 Z"/>
</g>
<g fill="#D2D2D2" fill-opacity="0.18" stroke="None">
<path d="
M 267.00 126.00 
C 267.25 126.27 267.00 127.00 267.00 127.00
C 306.16 129.13 329.83 173.07 315.68 208.68 C 301.52 244.29 253.90 254.58 224.75 233.25 C 195.60 211.91 190.42 160.14 223.00 140.00
C 223.27 139.79 223.72 139.23 224.00 139.00
C 232.59 132.00 242.85 127.43 254.00 127.00
C 253.98 127.00 254.00 126.00 254.00 126.00
C 221.61 123.97 197.81 159.66 200.00 190.00 C 202.19 220.34 228.59 247.31 260.98 246.98 C 293.36 246.64 319.42 219.79 321.00 189.00 C 322.58 158.21 299.24 125.12 267.00 126.00 Z"/>
</g>
<g fill="#464646" fill-opacity="0.69" stroke="None">
<path d="
M 254.00 127.00 
C 258.27 126.84 262.73 126.77 267.00 127.00
C 267.00 127.00 267.25 126.27 267.00 126.00
C 266.00 126.03 265.00 126.00 264.00 126.00
C 261.33 126.00 258.67 126.00 256.00 126.00
C 255.50 126.00 254.50 126.03 254.00 126.00
C 254.00 126.00 253.98 127.00 254.00 127.00 Z"/>
</g>
<g fill="#000000" fill-opacity="1.00" stroke="None">
<path d="
M 224.00 139.00 
C 223.75 139.25 223.32 139.80 223.00 140.00
C 190.42 160.14 195.60 211.91 224.75 233.25 C 253.90 254.58 301.52 244.29 315.68 208.68 C 329.83 173.07 306.16 129.13 267.00 127.00
C 262.73 126.77 258.27 126.84 254.00 127.00
C 242.85 127.43 232.59 132.00 224.00 139.00 Z"/>
</g>
<g fill="#424242" fill-opacity="0.69" stroke="None">
<path d="
M 113.00 144.00 
C 116.06 140.35 119.22 137.05 122.00 133.00
C 118.96 136.52 115.67 139.95 113.00 144.00 Z"/>
</g>
<g fill="#3F3F3F" fill-opacity="0.71" stroke="None">
<path d="
M 223.00 140.00 
C 223.32 139.80 223.75 139.25 224.00 139.00
C 223.72 139.23 223.27 139.79 223.00 140.00 Z"/>
</g>
<g fill="#999999" fill-opacity="0.40" stroke="None">
<path d="
M 81.00 258.00 
C 81.00 257.96 82.00 258.00 82.00 258.00
C 81.70 250.15 81.47 241.84 82.00 234.00
C 82.00 234.00 81.00 233.96 81.00 234.00
C 81.00 242.00 81.00 250.00 81.00 258.00 Z"/>
</g>
<g fill="#707070" fill-opacity="0.55" stroke="None">
<path d="
M 94.00 256.00 
C 94.00 249.00 93.86 241.99 94.00 235.00
C 93.21 241.57 93.36 249.38 94.00 256.00 Z"/>
</g>
<g fill="#727272" fill-opacity="0.54" stroke="None">
<path d="
M 427.00 256.00 
C 427.67 249.76 427.61 242.30 427.00 236.00
C 427.00 242.67 427.00 249.33 427.00 256.00 Z"/>
</g>
<g fill="#8F8F8F" fill-opacity="0.43" stroke="None">
<path d="
M 439.00 256.00 
C 439.00 255.96 440.00 256.00 440.00 256.00
C 440.00 254.67 440.00 253.33 440.00 252.00
C 440.00 247.92 439.33 243.40 439.00 240.00
C 439.00 245.33 439.00 250.67 439.00 256.00 Z"/>
</g>
<g fill="#CDCDCD" fill-opacity="0.20" stroke="None">
<path d="
M 402.00 355.00 
C 400.16 357.68 398.10 359.75 396.00 362.00
C 394.00 364.14 391.95 366.72 390.00 369.00
C 387.81 371.56 385.51 373.85 383.00 376.00
C 350.75 403.56 318.48 419.40 275.67 423.67 C 232.86 427.94 189.91 412.99 155.00 390.00
C 152.30 388.22 150.30 385.98 148.00 384.00
C 144.11 381.33 140.66 378.13 137.00 375.00
C 134.44 372.81 132.15 370.51 130.00 368.00
C 127.24 364.77 124.41 361.52 122.00 358.00
C 119.99 355.67 117.75 353.66 116.00 351.00
C 97.58 323.03 83.30 292.12 82.00 258.00
C 82.00 258.00 81.00 257.96 81.00 258.00
C 81.00 351.90 172.11 425.68 262.00 425.00 C 351.89 424.32 440.00 349.70 440.00 256.00
C 440.00 256.00 439.00 255.96 439.00 256.00
C 439.00 292.51 422.05 325.78 402.00 355.00 Z"/>
</g>
<g fill="#D0D0D0" fill-opacity="0.18" stroke="None">
<path d="
M 167.00 331.00 
C 173.58 322.89 173.92 308.23 181.75 299.75 C 189.58 291.27 194.26 281.81 204.70 275.70 C 215.14 269.59 224.63 262.46 237.00 261.00
C 237.09 260.98 238.61 260.14 239.00 260.00
C 243.71 258.28 248.83 258.00 254.00 258.00
C 253.96 258.00 254.00 257.00 254.00 257.00
C 213.44 257.00 173.56 291.06 167.00 331.00 Z"/>
</g>
<g fill="#676767" fill-opacity="0.56" stroke="None">
<path d="
M 254.00 258.00 
C 258.00 258.00 262.00 258.00 266.00 258.00
C 265.96 258.00 266.00 257.00 266.00 257.00
C 262.00 257.00 258.00 257.00 254.00 257.00
C 254.00 257.00 253.96 258.00 254.00 258.00 Z"/>
</g>
<g fill="#CFCFCF" fill-opacity="0.19" stroke="None">
<path d="
M 266.00 258.00 
C 313.02 258.00 350.68 299.99 356.00 344.00
C 351.56 298.08 314.28 257.00 266.00 257.00
C 266.00 257.00 265.96 258.00 266.00 258.00 Z"/>
</g>
<g fill="#000000" fill-opacity="1.00" stroke="None">
<path d="
M 239.00 260.00 
C 238.15 260.49 238.30 260.85 237.00 261.00
C 224.63 262.46 215.14 269.59 204.70 275.70 C 194.26 281.81 189.58 291.27 181.75 299.75 C 173.92 308.23 173.58 322.89 167.00 331.00
C 167.00 331.00 166.95 331.51 167.00 332.00
C 167.51 336.74 165.39 341.93 165.00 346.00
C 165.00 351.33 165.00 356.67 165.00 362.00
C 165.00 362.50 164.77 363.65 165.00 364.00
C 171.66 366.96 181.62 362.67 189.00 364.00 C 196.38 365.33 205.32 363.41 213.00 364.00 C 220.68 364.59 229.22 363.76 237.00 364.00 C 244.78 364.24 253.28 363.96 261.00 364.00 C 268.73 364.04 277.51 364.12 285.00 364.00 C 292.49 363.88 302.09 364.36 309.00 364.00 C 315.91 363.64 327.39 364.85 333.00 364.00 C 338.61 363.15 355.25 366.71 356.00 362.00
C 355.86 361.54 356.00 360.50 356.00 360.00
C 356.00 354.80 356.62 349.16 356.00 344.00
C 350.68 299.99 313.02 258.00 266.00 258.00
C 262.00 258.00 258.00 258.00 254.00 258.00
C 248.83 258.00 243.71 258.28 239.00 260.00 Z"/>
</g>
<g fill="#343434" fill-opacity="0.74" stroke="None">
<path d="
M 237.00 261.00 
C 238.30 260.85 238.15 260.49 239.00 260.00
C 238.61 260.14 237.09 260.98 237.00 261.00 Z"/>
</g>
<g fill="#5C5C5C" fill-opacity="0.61" stroke="None">
<path d="
M 426.00 270.00 
C 426.53 267.40 427.00 264.28 427.00 261.00
C 426.76 263.27 426.26 267.07 426.00 270.00 Z"/>
</g>
<g fill="#ADADAD" fill-opacity="0.30" stroke="None">
<path d="
M 165.00 346.00 
C 165.39 341.93 167.51 336.74 167.00 332.00
C 164.76 336.09 165.00 340.96 165.00 346.00 Z"/>
</g>
<g fill="#FFFFFF" fill-opacity="0.00" stroke="None">
<path d="
M 356.00 360.00 
C 358.05 355.18 356.47 348.81 356.00 344.00
C 356.62 349.16 356.00 354.80 356.00 360.00 Z"/>
</g>
<g fill="#4C4C4C" fill-opacity="0.65" stroke="None">
<path d="
M 122.00 358.00 
C 120.17 355.33 118.04 353.44 116.00 351.00
C 117.75 353.66 119.99 355.67 122.00 358.00 Z"/>
</g>
<g fill="#666666" fill-opacity="0.58" stroke="None">
<path d="
M 396.00 362.00 
C 398.10 359.75 400.16 357.68 402.00 355.00
C 399.96 357.34 397.92 359.42 396.00 362.00 Z"/>
</g>
<g fill="#FFFFFF" fill-opacity="0.01" stroke="None">
<path d="
M 356.00 365.00 
C 351.30 368.31 341.01 363.52 335.00 365.00 C 328.99 366.48 320.65 364.37 314.00 365.00 C 307.35 365.63 298.88 364.72 292.00 365.00 C 285.12 365.28 277.93 364.92 271.00 365.00 C 264.07 365.08 256.93 365.06 250.00 365.00 C 243.07 364.94 234.77 365.22 228.00 365.00 C 221.23 364.78 213.30 365.57 207.00 365.00 C 200.70 364.43 191.37 366.30 186.00 365.00 C 180.63 363.70 167.74 368.22 165.00 364.00
C 164.77 363.65 165.00 362.50 165.00 362.00
C 163.17 361.85 164.67 359.24 163.00 359.00
C 162.19 369.54 174.47 365.53 182.00 366.00 C 189.53 366.47 199.05 365.81 207.00 366.00 C 214.95 366.19 223.89 365.96 232.00 366.00 C 240.11 366.04 248.88 366.09 257.00 366.00 C 265.12 365.91 274.01 366.28 282.00 366.00 C 289.99 365.72 299.37 366.66 307.00 366.00 C 314.63 365.34 325.20 367.47 332.00 366.00 C 338.80 364.53 351.66 369.73 356.00 365.00 Z"/>
</g>
<g fill="#3F3F3F" fill-opacity="0.71" stroke="None">
<path d="
M 165.00 364.00 
C 167.74 368.22 180.63 363.70 186.00 365.00 C 191.37 366.30 200.70 364.43 207.00 365.00 C 213.30 365.57 221.23 364.78 228.00 365.00 C 234.77 365.22 243.07 364.94 250.00 365.00 C 256.93 365.06 264.07 365.08 271.00 365.00 C 277.93 364.92 285.12 365.28 292.00 365.00 C 298.88 364.72 307.35 365.63 314.00 365.00 C 320.65 364.37 328.99 366.48 335.00 365.00 C 341.01 363.52 351.30 368.31 356.00 365.00
C 357.29 363.59 356.30 363.01 356.00 362.00
C 355.25 366.71 338.61 363.15 333.00 364.00 C 327.39 364.85 315.91 363.64 309.00 364.00 C 302.09 364.36 292.49 363.88 285.00 364.00 C 277.51 364.12 268.73 364.04 261.00 364.00 C 253.28 363.96 244.78 364.24 237.00 364.00 C 229.22 363.76 220.68 364.59 213.00 364.00 C 205.32 363.41 196.38 365.33 189.00 364.00 C 181.62 362.67 171.66 366.96 165.00 364.00 Z"/>
</g>
<g fill="#909090" fill-opacity="0.42" stroke="None">
<path d="
M 137.00 375.00 
C 134.79 372.79 132.26 370.26 130.00 368.00
C 132.15 370.51 134.44 372.81 137.00 375.00 Z"/>
</g>
<g fill="#8E8E8E" fill-opacity="0.43" stroke="None">
<path d="
M 383.00 376.00 
C 385.51 373.85 387.81 371.56 390.00 369.00
C 387.79 371.21 385.26 373.74 383.00 376.00 Z"/>
</g>
<g fill="#585858" fill-opacity="0.62" stroke="None">
<path d="
M 155.00 390.00 
C 152.63 388.02 150.68 385.84 148.00 384.00
C 150.30 385.98 152.30 388.22 155.00 390.00 Z"/>
</g>
<g fill="#454545" fill-opacity="0.69" stroke="None">
<path d="
M 273.00 412.00 
C 264.27 412.47 254.72 412.69 246.00 412.00
C 254.12 413.57 264.81 413.33 273.00 412.00 Z"/>
</g>
</svg>